<svg xmlns="http://www.w3.org/2000/svg" version="1.1" xmlns:xlink="http://www.w3.org/1999/xlink" xmlns:svgjs="http://svgjs.com/svgjs" width="512" height="512" x="0" y="0" viewBox="0 0 512.014 512.014" style="enable-background:new 0 0 512 512" xml:space="preserve" class=""><g><path fill="#524362" d="M90.669 6.4h330.676c50.075 0 90.669 40.594 90.669 90.669v317.876c0 50.075-40.594 90.669-90.669 90.669H90.669C40.594 505.614 0 465.02 0 414.945V97.069C0 46.994 40.594 6.4 90.669 6.4z" data-original="#470137" class=""></path><g fill="#ff61f6"><path d="m269.164 137.686-63.887 105.447 68.352 111.973a3.53 3.53 0 0 1 .344 2.576c-.231.805-1.03.298-2.404.524h-48.773c-3.436 0-5.84-.121-7.214-2.413a6493.126 6493.126 0 0 0-13.739-26.619 947.41 947.41 0 0 0-14.597-26.963 1565.886 1565.886 0 0 1-15.285-27.822h-.344a1061.28 1061.28 0 0 1-14.255 27.478 6256.032 6256.032 0 0 0-14.597 27.306 1220.69 1220.69 0 0 1-14.769 26.963c-.918 2.061-2.523 2.273-4.81 2.273H76.13c-.913 0-1.428.361-1.546-.556a3.447 3.447 0 0 1 .516-2.404l66.29-108.882-64.573-109.225c-.687-.912-.801-1.656-.344-2.232a2.504 2.504 0 0 1 2.062-.859h48.429a7.172 7.172 0 0 1 3.092.516 6.224 6.224 0 0 1 2.061 1.889 383.895 383.895 0 0 0 13.739 27.478 1474.404 1474.404 0 0 0 15.285 27.135 383.901 383.901 0 0 1 14.255 27.135h.344a1011.537 1011.537 0 0 1 13.911-27.478c4.691-8.93 9.499-17.918 14.425-26.963A1242.353 1242.353 0 0 0 218.331 137a5.282 5.282 0 0 1 1.374-2.232 4.996 4.996 0 0 1 2.748-.516h44.995a1.97 1.97 0 0 1 2.383 1.439 1.974 1.974 0 0 1-.667 1.995zM367.737 362.663a106.415 106.415 0 0 1-45.854-9.618 72.9 72.9 0 0 1-32.114-29.024c-7.788-12.934-11.68-29.135-11.678-48.602a89.702 89.702 0 0 1 11.678-44.996 85.737 85.737 0 0 1 34.004-32.974c14.882-8.243 32.857-12.365 53.926-12.365 1.143 0 2.631.057 4.465.172 1.83.118 4.006.289 6.526.515v-67.665c0-1.599.688-2.404 2.062-2.404h43.277a1.822 1.822 0 0 1 2.061 2.061v202.995c0 3.896.172 8.133.515 12.709.344 4.583.63 8.705.859 12.365a3.55 3.55 0 0 1-2.062 3.435 170.389 170.389 0 0 1-34.69 10.304 186.29 186.29 0 0 1-32.975 3.092zm20.952-42.591v-93.769a34.049 34.049 0 0 0-5.667-1.031c-2.34-.235-4.69-.35-7.042-.343a53.043 53.043 0 0 0-24.043 5.495 46.94 46.94 0 0 0-18.032 15.8c-4.696 6.869-7.043 15.914-7.042 27.135a60.59 60.59 0 0 0 3.606 21.982 41.784 41.784 0 0 0 9.618 15.113 36.626 36.626 0 0 0 14.425 8.587 56.5 56.5 0 0 0 17.689 2.747c3.204 0 6.181-.115 8.93-.343a36.728 36.728 0 0 0 7.558-1.373z" fill="#c9a7eb" data-original="#ff61f6" class=""></path></g></g></svg>