<svg xmlns="http://www.w3.org/2000/svg" version="1.1" xmlns:xlink="http://www.w3.org/1999/xlink" xmlns:svgjs="http://svgjs.com/svgjs" width="512" height="512" x="0" y="0" viewBox="0 0 504.4 504.4" style="enable-background:new 0 0 512 512" xml:space="preserve" class=""><g><path d="M195.2 184.2H140v44h51.6c9.2 0 17.2-2.4 17.2-23.6 0-21.2-13.6-20.4-13.6-20.4zM195.2 260.2H140v56h52c8 0 23.2-3.2 23.2-27.2.4-28.4-20-28.8-20-28.8z" fill="#ffffff" data-original="#000000" class=""></path><path d="M377.6.2H126.4C56.8.2 0 57 0 126.6v251.6c0 69.2 56.8 126 126.4 126H378c69.6 0 126.4-56.8 126.4-126.4V126.6C504 57 447.2.2 377.6.2zm-81.6 160h84v20h-84v-20zm-39.2 131.6c0 62.4-61.6 64.4-61.6 64.4H96v-208h98.8c30.8 0 55.2 17.6 55.2 54.4s-29.6 38.8-29.6 38.8c39.2-.4 36.4 50.4 36.4 50.4zm150.8-3.6H306.4c0 40 34.4 36.8 34.4 36.8 32.4 0 31.2-20.8 31.2-20.8h34.4c0 56-66.8 53.6-66.8 53.6-80 0-74.8-78.8-74.8-78.8s0-79.2 74.8-79.2c78.8-.4 68 88.4 68 88.4z" fill="#ffffff" data-original="#000000" class=""></path><path d="M340.4 228.6c-30 0-34.4 31.6-34.4 31.6h64s.4-31.6-29.6-31.6z" fill="#ffffff" data-original="#000000" class=""></path></g></svg>