<svg xmlns="http://www.w3.org/2000/svg" version="1.1" xmlns:xlink="http://www.w3.org/1999/xlink" xmlns:svgjs="http://svgjs.com/svgjs" width="512" height="512" x="0" y="0" viewBox="0 0 469.336 469.336" style="enable-background:new 0 0 512 512" xml:space="preserve" class=""><g><path d="M459.951 137.147 331.972 9.083c-12.063-12.112-33.219-12.102-45.26-.01l-42.656 42.684c-6.052 6.035-9.385 14.082-9.385 22.65 0 8.568 3.333 16.615 9.375 22.64l1.279 1.279c-25.742 17.781-82.48 50.797-149.32 50.797-4.76 0-8.948 3.158-10.26 7.745L.409 455.732a10.68 10.68 0 0 0 10.261 13.603c.979 0 1.969-.135 2.927-.407l298.667-85.39a10.682 10.682 0 0 0 7.74-10.267c0-66.884 32.993-123.66 50.763-149.419l1.268 1.269c6.031 6.056 14.073 9.392 22.635 9.392s16.604-3.336 22.625-9.381l42.656-42.684c6.052-6.035 9.385-14.082 9.385-22.65 0-8.569-3.333-16.616-9.385-22.651zM298.815 365.251 47.317 437.104l123.147-123.147c6.345 3.746 13.65 6.044 21.539 6.044 23.531 0 42.667-19.135 42.667-42.667s-19.135-42.667-42.667-42.667-42.667 19.135-42.667 42.667c0 7.889 2.298 15.194 6.044 21.539L32.233 422.021l71.853-251.499c72.027-2.594 131.564-38.892 156.555-56.633l94.807 94.807c-17.741 24.992-54.039 84.528-56.633 156.555zM170.67 277.335c0-11.76 9.573-21.333 21.333-21.333 11.76 0 21.333 9.573 21.333 21.333 0 11.76-9.573 21.333-21.333 21.333-11.76 0-21.333-9.573-21.333-21.333zm274.208-109.792-42.677 42.677c-4 4.021-11.052 4.031-15.073-.01L259.118 82.2c-2.01-2-3.115-4.677-3.115-7.531s1.104-5.531 3.125-7.542l42.677-42.677c2-2.01 4.677-3.115 7.531-3.115s5.531 1.104 7.542 3.125l128 128 .01.01c2.01 2 3.115 4.677 3.115 7.531 0 2.855-1.104 5.532-3.125 7.542z" fill="#d27685" data-original="#000000" class=""></path></g></svg>