<svg xmlns="http://www.w3.org/2000/svg" version="1.1" xmlns:xlink="http://www.w3.org/1999/xlink" xmlns:svgjs="http://svgjs.com/svgjs" width="512" height="512" x="0" y="0" viewBox="0 0 450 450" style="enable-background:new 0 0 512 512" xml:space="preserve" class=""><g><path d="M219 217c-.6 0-1.2-.1-1.7-.3-2.6-1-3.9-3.8-2.9-6.4L261.5 83c1-2.6 3.8-3.9 6.4-2.9s3.9 3.8 3 6.4l-47.2 127.2c-.7 2-2.6 3.3-4.7 3.3zM106.8 193.2c-16.3 0-29.5-12.6-29.5-28V109c0-2.8 2.2-5 5-5s5 2.2 5 5v56.2c0 9.9 8.8 18 19.5 18s19.5-8.1 19.5-18V109c0-2.8 2.2-5 5-5s5 2.2 5 5v56.2c.1 15.5-13.2 28-29.5 28zM155.1 193.2c-.8 0-1.6-.2-2.4-.6-2.4-1.3-3.3-4.3-2-6.8l43-79.8c1.3-2.4 4.3-3.3 6.8-2 2.4 1.3 3.3 4.3 2 6.8l-43 79.8c-.9 1.7-2.6 2.6-4.4 2.6z" fill="#d27685" data-original="#000000" class=""></path><path d="M198.1 193.2c-1.8 0-3.5-.9-4.4-2.6l-43-79.8c-1.3-2.4-.4-5.5 2-6.8s5.5-.4 6.8 2l43 79.8c1.3 2.4.4 5.5-2 6.8-.8.4-1.6.6-2.4.6zM311.7 193.2c-16.3 0-29.5-12.6-29.5-28V109c0-2.8 2.2-5 5-5s5 2.2 5 5v56.2c0 9.9 8.8 18 19.5 18s19.5-8.1 19.5-18V109c0-2.8 2.2-5 5-5s5 2.2 5 5v56.2c0 15.5-13.2 28-29.5 28zM368.2 198.6c-2.8 0-5-2.2-5-5V103c0-2.8 2.2-5 5-5s5 2.2 5 5v90.6c0 2.8-2.2 5-5 5zM177 325.8c-9.1 0-16.5-7.4-16.5-16.5s7.4-16.5 16.5-16.5 16.5 7.4 16.5 16.5-7.4 16.5-16.5 16.5zm0-23c-3.6 0-6.5 2.9-6.5 6.5s2.9 6.5 6.5 6.5 6.5-2.9 6.5-6.5-2.9-6.5-6.5-6.5zM225.3 325.8c-9.1 0-16.5-7.4-16.5-16.5s7.4-16.5 16.5-16.5 16.5 7.4 16.5 16.5-7.4 16.5-16.5 16.5zm0-23c-3.6 0-6.5 2.9-6.5 6.5s2.9 6.5 6.5 6.5 6.5-2.9 6.5-6.5-2.9-6.5-6.5-6.5zM273.5 325.8c-9.1 0-16.5-7.4-16.5-16.5s7.4-16.5 16.5-16.5 16.5 7.4 16.5 16.5-7.4 16.5-16.5 16.5zm0-23c-3.6 0-6.5 2.9-6.5 6.5s2.9 6.5 6.5 6.5 6.5-2.9 6.5-6.5-2.9-6.5-6.5-6.5z" fill="#d27685" data-original="#000000" class=""></path><path d="M415.2 350.9H35.3c-17.1 0-31-13.9-31-31V50c0-17.1 13.9-31 31-31h379.9c17.1 0 31 13.9 31 31v269.9c.1 17.1-13.9 31-31 31zM35.3 28.9c-11.6 0-21 9.4-21 21v269.9c0 11.6 9.4 21 21 21h379.9c11.6 0 21-9.4 21-21V50c0-11.6-9.4-21-21-21 0-.1-379.9-.1-379.9-.1z" fill="#d27685" data-original="#000000" class=""></path><path d="M441.3 277.7H9.3c-2.8 0-5-2.2-5-5s2.2-5 5-5h432c2.8 0 5 2.2 5 5s-2.3 5-5 5zM305.1 397c-2.8 0-5-2.2-5-5v-46.2c0-2.8 2.2-5 5-5s5 2.2 5 5V392c0 2.8-2.2 5-5 5zm-157.4 0c-2.8 0-5-2.2-5-5v-46.2c0-2.8 2.2-5 5-5s5 2.2 5 5V392c0 2.8-2.2 5-5 5z" fill="#d27685" data-original="#000000" class=""></path><path d="M332.4 432.5H118.1c-12.6 0-22.8-10.2-22.8-22.8 0-12.5 10.2-22.8 22.8-22.8h214.2c12.5 0 22.8 10.2 22.8 22.8s-10.2 22.8-22.7 22.8zM118.1 397c-7 0-12.8 5.7-12.8 12.8s5.7 12.8 12.8 12.8h214.2c7 0 12.8-5.7 12.8-12.8s-5.7-12.8-12.8-12.8z" fill="#d27685" data-original="#000000" class=""></path></g></svg>