<svg xmlns="http://www.w3.org/2000/svg" version="1.1" xmlns:xlink="http://www.w3.org/1999/xlink" xmlns:svgjs="http://svgjs.com/svgjs" width="512" height="512" x="0" y="0" viewBox="0 0 520 520" style="enable-background:new 0 0 512 512" xml:space="preserve" class=""><g><path d="M120 170h60c5.523 0 10-4.477 10-10v-30h60v100h-66.667C164.953 230 150 244.953 150 263.333v13.334c0 18.38 14.953 33.333 33.333 33.333H250v70h-30c-5.523 0-10 4.478-10 10v60c0 5.522 4.477 10 10 10h170c5.522 0 10-4.478 10-10v-60c0-5.522-4.478-10-10-10h-30v-70c85.429.001 80.177.053 81.285-.091a9.938 9.938 0 0 0 2.837-.806c1.444-.655-1.957 1.759 41.878-31.104 5.335-4.001 5.324-12.006 0-16-42.531-31.883-40.063-30.181-41.354-30.854a10.287 10.287 0 0 0-3.811-1.109c-.664-.056 4.912-.036-80.835-.036V130h50v30c0 5.523 4.478 10 10 10h60c5.522 0 10-4.477 10-10V50c0-5.523-4.478-10-10-10H120c-5.523 0-10 4.477-10 10v110c0 5.523 4.477 10 10 10zm301.315 80-6.667 10H270c-5.522 0-10 4.478-10 10s4.478 10 10 10h144.648l6.667 10H220v-40zM170 276.667v-13.334c0-7.352 5.981-13.333 13.333-13.333H200v40h-16.667c-7.352 0-13.333-5.981-13.333-13.333zM350 400h30v40H230v-40h30c5.522 0 10-4.478 10-10v-80h70v80c0 5.522 4.478 10 10 10zm92.457-114.343L432.019 270l10.438-15.658 20.876 15.657zM130 60h340v90h-40v-30c0-5.523-4.478-10-10-10h-70c-5.522 0-10 4.477-10 10v110h-70V120c0-5.523-4.478-10-10-10h-80c-5.523 0-10 4.477-10 10v30h-40zM64.124 246.598l-14.14-14.14 14.14-14.14 14.14 14.14zM106.602 232.441l-14.14 14.14-14.14-14.14 14.14-14.14zM49.973 204.127l14.14-14.14 14.14 14.14-14.14 14.14zM78.255 204.13l14.14-14.14 14.14 14.14-14.14 14.14z" fill="#d27685" data-original="#000000" class=""></path><circle cx="420" cy="350" r="10" fill="#d27685" data-original="#000000" class=""></circle><circle cx="200" cy="190" r="10" fill="#d27685" data-original="#000000" class=""></circle><circle cx="240" cy="270" r="10" fill="#d27685" data-original="#000000" class=""></circle><circle cx="150" cy="210" r="10" fill="#d27685" data-original="#000000" class=""></circle><circle cx="60" cy="280" r="10" fill="#d27685" data-original="#000000" class=""></circle><circle cx="70" cy="40" r="10" fill="#d27685" data-original="#000000" class=""></circle><path d="M55.735 445.85c33.08 32.227 85.495 32.182 118.528.001a9.482 9.482 0 0 0 1.586-1.586C190.778 428.94 200 408.032 200 385c0-46.808-38.136-85-85-85-23.032 0-43.941 9.222-59.265 24.15a9.43 9.43 0 0 0-1.585 1.585c-32.228 33.083-32.18 85.496 0 118.529.511.64.973 1.095 1.585 1.586zM60 375h-9.229c1.624-10.472 5.763-20.118 11.769-28.317l6.498 6.498c3.906 3.904 10.237 3.905 14.142 0s3.906-10.237 0-14.143l-6.498-6.498c8.2-6.006 17.846-10.146 28.318-11.77V330c0 5.522 4.477 10 10 10s10-4.478 10-10v-9.229c10.472 1.624 20.118 5.764 28.318 11.77l-6.498 6.498c-3.905 3.905-3.905 10.237 0 14.143 3.906 3.905 10.237 3.904 14.142 0l6.498-6.498c6.006 8.199 10.146 17.846 11.769 28.317H170c-5.523 0-10 4.478-10 10s4.477 10 10 10h9.229c-1.624 10.472-5.763 20.118-11.769 28.317l-6.498-6.498c-3.905-3.903-10.237-3.904-14.142 0-3.905 3.905-3.906 10.237 0 14.143l6.498 6.498c-8.2 6.006-17.846 10.146-28.318 11.77V440c0-5.522-4.477-10-10-10s-10 4.478-10 10v9.229c-10.472-1.624-20.118-5.764-28.318-11.77l6.498-6.498c3.905-3.905 3.905-10.237 0-14.143-3.905-3.904-10.237-3.904-14.142 0l-6.498 6.498c-6.006-8.199-10.146-17.846-11.769-28.317H60c5.523 0 10-4.478 10-10S65.523 375 60 375z" fill="#d27685" data-original="#000000" class=""></path><path d="M100.513 393.162A10 10 0 0 0 110 400h20c5.523 0 10-4.478 10-10s-4.477-10-10-10h-12.792l-7.721-23.162c-1.747-5.239-7.411-8.071-12.649-6.325-5.24 1.747-8.071 7.41-6.325 12.649zM70 130c16.542 0 30-13.458 30-30S86.542 70 70 70s-30 13.458-30 30 13.458 30 30 30zm0-40c5.514 0 10 4.486 10 10s-4.486 10-10 10-10-4.486-10-10 4.486-10 10-10zM455 460c19.299 0 35-15.701 35-35s-15.701-35-35-35-35 15.701-35 35 15.701 35 35 35zm0-50c8.271 0 15 6.729 15 15s-6.729 15-15 15-15-6.729-15-15 6.729-15 15-15zM490 480H30c-5.523 0-10 4.478-10 10s4.477 10 10 10h460c5.522 0 10-4.478 10-10s-4.478-10-10-10z" fill="#d27685" data-original="#000000" class=""></path></g></svg>