<svg xmlns="http://www.w3.org/2000/svg" version="1.1" xmlns:xlink="http://www.w3.org/1999/xlink" xmlns:svgjs="http://svgjs.com/svgjs" width="512" height="512" x="0" y="0" viewBox="0 0 512 512" style="enable-background:new 0 0 512 512" xml:space="preserve" class=""><g><path d="M496 80.011H272c-8.832 0-16 7.168-16 16v320c0 8.832 7.168 16 16 16h224c8.832 0 16-7.168 16-16v-320c0-8.832-7.168-16-16-16z" style="" fill="#eceff1" data-original="#eceff1" class=""></path><path d="M432 368.011H272c-8.832 0-16-7.168-16-16s7.168-16 16-16h160c8.832 0 16 7.168 16 16s-7.168 16-16 16zM352 144.011c-44.192 0-80 35.808-80 80s35.808 80 80 80 80-35.808 80-80h-80v-80z" style="" fill="#ecb17d" data-original="#f57c00" class=""></path><path d="M384 112.011v80h80c0-44.192-35.808-80-80-80z" style="" fill="#ecb17d" data-original="#f57c00" class=""></path><path d="M282.208 19.691c-3.648-3.04-8.544-4.352-13.152-3.392l-256 48A15.955 15.955 0 0 0 0 80.011v352c0 7.68 5.472 14.304 13.056 15.712l256 48c.96.192 1.952.288 2.944.288 3.712 0 7.328-1.28 10.208-3.68a16.006 16.006 0 0 0 5.792-12.32v-448c0-4.768-2.112-9.28-5.792-12.32z" style="" fill="#f79540" data-original="#ef6c00" class=""></path><path d="M112 368.011c-8.832 0-16-7.168-16-16v-160c0-8.832 7.168-16 16-16h48c35.296 0 64 28.704 64 64s-28.704 64-64 64h-32v48c0 8.832-7.168 16-16 16zm16-96h32c17.632 0 32-14.368 32-32s-14.368-32-32-32h-32v64z" style="" fill="#fafafa" data-original="#fafafa" class=""></path></g></svg>